PathFileType	4	(X/Y/Z)	C:/Users/beibeiliu/ov580/test_trc/capture2\sequence.15_training_dense_right.trc
DataRate	CameraRate	NumFrames	NumMarkers	Units	OrigDataRate	OrigDataStartFrame	OrigNumFrames
120	120	18	19	mm	120	46	367
Frame#	Time	ThumbCMC			ThumbMCP			ThumbIP			ThumbTip			IndexMCP			IndexPIP			IndexTip			MiddleMCP			MiddlePIP			MiddleTip			RingMCP			RingPIP			RingTip			PinkyMCP			PinkyPIP			PinkyTip			BackHand1			BackHand2			BackHand3	
		X0	Y0	Z0	X1	Y1	Z1	X2	Y2	Z2	X3	Y3	Z3	X4	Y4	Z4	X5	Y5	Z5	X6	Y6	Z6	X7	Y7	Z7	X8	Y8	Z8	X9	Y9	Z9	X10	Y10	Z10	X11	Y11	Z11	X12	Y12	Z12	X13	Y13	Z13	X14	Y14	Z14	X15	Y15	Z15	X16	Y16	Z16	X17	Y17	Z17	X18	Y18	Z18	
45	0.375	127.759	38.3006	-27.3541	112.3	32.2633	-49.5314	96.7022	35.3403	-70.847	85.3774	37.0403	-90.9662	140.98	45.2584	-96.1181	136.114	13.6815	-99.4982	139.558	16.7737	-64.3794	158.766	39.0223	-99.0825	154.064	8.54469	-97.0699	150.683	12.8084	-58.5951	177.229	35.7931	-93.6494	168.263	4.99733	-88.1158	161.234	11.3628	-56.7094	208.713	48.2951	-83.5716	214.266	45.1014	-100.185	233.304	48.1128	-119.096	180.219	62.7918	-43.9312	184.807	59.0297	-11.9454	148.265	64.0648	-32.1664	
46	0.383333	124.837	40.9665	-26.3406	113.356	35.1064	-47.6843	96.7178	38.4681	-72.6781	90.1379	39.1145	-88.5169	137.045	45.2978	-95.6731	137.997	14.9502	-98.673	141.235	19.5177	-63.1237	160.311	39.5233	-98.0769	152.801	8.38829	-95.1363	150.041	13.2977	-59.1297	176.792	35.3392	-93.9006	166.27	5.19361	-87.7193	159.914	13.2083	-56.1087	210.883	46.3666	-83.8187	220.309	41.6888	-103.935	228.801	44.5597	-121.786	186.774	61.4377	-47.4343	186.217	59.5585	-16.6338	154.189	64.9077	-31.3587	
47	0.391667	129.89	44.5664	-23.3262	111.149	40.5788	-47.2393	97.4376	44.26	-68.9742	93.034	46.6003	-91.3543	137.792	48.728	-94.7249	137.932	16.4	-97.7754	136.226	18.5536	-64.8505	163.014	37.6799	-99.0539	150.88	7.96559	-92.0064	145.388	16.8782	-56.7915	178.572	33.514	-93.5676	166.082	3.14917	-85.1834	158.749	13.0658	-56.3403	209.44	41.9543	-83.4983	215.546	38.4	-103.252	228.831	39.4403	-121.522	189.595	61.5623	-43.8693	185.76	58.6305	-12.7176	156.035	66.471	-27.9564	
48	0.4	129.353	50.8928	-24.796	112.499	47.1759	-46.1744	100.766	52.3776	-71.976	94.1916	53.6359	-89.1195	142.817	47.5113	-99.7772	131.866	21.9475	-100.096	137.33	20.6857	-65.8647	164.02	36.6059	-98.9074	147.675	11.017	-92.9949	143.777	19.6923	-56.6968	177.006	31.4387	-95.375	163.347	4.92417	-89.3299	158.208	16.5719	-53.3396	210.049	35.1501	-81.4404	220.995	28.41	-100.507	229.271	28.4466	-121.242	192.754	57.2407	-42.7912	191.794	56.6448	-15.7706	161.002	68.872	-30.0803	
49	0.408333	134.824	56.5618	-27.7901	117.232	56.0048	-52.6489	104.36	60.0012	-71.1375	98.7995	62.9682	-93.9415	146.943	50.6627	-96.9673	132.371	22.6616	-94.7082	135.589	27.4291	-62.1921	162.463	40.1984	-96.8284	146.321	9.93317	-88.0325	143.647	22.4126	-56.3133	179.374	25.3542	-95.6102	157.68	6.04616	-89.7936	153.788	16.7029	-54.3646	207.729	29.5684	-81.7421	218.51	17.9833	-100.702	227.789	15.9934	-120.214	196.181	54.0677	-46.1218	191.518	53.1608	-17.0766	167.544	70.6403	-31.2341	
50	0.416667	135.437	64.2874	-30.7288	118.051	63.3573	-51.5316	109.761	67.9612	-73.0637	103.565	72.4194	-97.1682	147.026	52.6893	-99.7837	128.411	27.676	-96.0268	131.752	29.5085	-62.8856	160.233	35.1324	-99.5278	140.139	16.1492	-89.7458	145.521	25.7707	-53.5068	178.308	21.7321	-95.2563	154.339	4.78052	-88.5775	151.923	17.1075	-53.7516	206.693	19.9413	-82.8772	212.174	11.131	-102.829	222.937	-3.0481	-120.064	196.61	50.6282	-49.3924	195.095	51.0145	-18.4304	173.228	68.3294	-31.8429	
51	0.425	139.141	70.1117	-28.2224	126.377	70.0516	-55.0477	117.658	73.9806	-75.646	111.842	79.1163	-99.1347	152.989	53.1683	-97.8224	130.183	32.5981	-96.3092	128.634	37.2264	-61.6388	162.904	35.5591	-95.8632	136.288	19.2083	-88.1037	140.644	35.4454	-52.4254	175.993	17.321	-93.0259	144.715	8.54801	-85.2018	147.529	20.4011	-52.953	202.647	10.4401	-83.0235	205.694	-3.52732	-97.4377	212.136	-16.2621	-122.728	198.833	43.4087	-48.8103	198.316	42.3023	-16.2823	178.361	69.246	-33.5958	
52	0.433333	147.471	75.7486	-31.1828	130.78	77.8175	-55.1993	125.777	80.2233	-79.6348	118.597	86.9939	-98.8131	152.539	51.1636	-99.5512	125.325	40.0392	-93.4945	133.499	43.1516	-58.7742	159.804	31.8437	-97.2926	131.886	26.004	-86.5018	142.292	36.9935	-51.4976	167.972	16.7472	-94.4434	140.494	10.7016	-84.9199	143.988	25.0968	-52.8576	195.457	3.93526	-80.7218	195.923	-9.7455	-99.5467	198.297	-24.0819	-120.023	200.299	34.7713	-46.973	195.218	40.4997	-14.225	184.009	63.6856	-34.9696	
53	0.441667	154.424	78.1393	-31.6675	137.991	84.4117	-55.3474	132.155	87.7586	-78.1257	127.771	93.7017	-103.688	157.272	54.0941	-98.3509	129.414	43.2163	-95.8414	132.195	45.6053	-62.2142	159.217	35.6007	-96.6433	128.348	29.3152	-82.4046	140.858	39.7652	-50.9405	163.702	13.1394	-94.4491	135.742	12.621	-84.9646	141.436	32.4435	-55.3554	188.166	-3.1863	-78.1321	185.524	-17.5535	-95.4284	186.228	-27.2903	-118.271	198.955	29.5339	-44.5509	196.357	35.489	-15.8046	189.205	63.9759	-36.6246	
54	0.45	160.489	76.7666	-31.4124	145.96	84.06	-53.7429	141.34	91.572	-81.2535	136.514	96.713	-99.5194	156.013	53.4855	-100.566	126.904	50.5184	-92.1858	132.23	51.6391	-61.3705	156.02	35.2381	-97.0515	126.744	35.8332	-81.7277	138.453	46.6859	-52.4578	158.762	16.921	-94.1689	131.253	16.255	-84.0512	137.707	32.6346	-55.4269	180.766	-6.20913	-81.7685	175.128	-17.8448	-99.6919	172.934	-32.7873	-122.37	194.854	26.6407	-47.9879	194.804	29.6536	-15.1848	192.847	59.7038	-39.4182	
55	0.458333	165.783	76.393	-32.2934	153.476	85.2278	-57.2093	148.036	95.1051	-78.4158	145.098	98.3954	-103.517	158.485	57.601	-99.5074	129.95	54.2504	-93.1211	133.504	55.5195	-61.8997	155.587	36.1885	-96.0408	126.805	40.7582	-83.794	142.348	48.5854	-49.7293	157.301	14.7647	-91.5584	128.293	27.6103	-83.6947	137.637	34.9438	-52.0496	173.348	-5.35216	-79.1227	165.819	-19.455	-98.9343	163.635	-27.2582	-120.968	193.666	20.9227	-47.671	192.229	26.4766	-14.7313	194.023	57.9334	-38.8615	
56	0.466667	171.246	77.5967	-32.8812	158.143	89.0386	-56.9057	155.99	96.1682	-80.7291	152.756	102.512	-102.513	159.319	56.646	-99.4571	132.223	61.8313	-95.248	137.058	62.421	-59.9838	154.994	37.971	-95.7869	126.584	43.8736	-84.9328	140.784	52.8394	-51.473	154.143	20.3509	-91.4779	123.974	28.4583	-82.2362	135.485	38.1732	-52.6414	166.979	-3.66371	-80.3572	157.814	-17.7604	-97.303	150.171	-29.0278	-119.044	188.868	17.6562	-44.8776	191.376	24.0138	-15.8314	194.994	51.1667	-38.6694	
57	0.475	174.885	78.6643	-32.0296	165.018	91.0554	-59.0288	162.69	100.532	-84.3044	159.906	102.654	-100.505	162.476	60.0067	-99.0621	131.95	64.5316	-93.4968	140.788	64.2428	-59.916	152.443	37.7992	-94.9215	125.329	51.3465	-82.027	141.746	54.344	-50.9808	149.416	19.1457	-90.3159	122.578	33.7919	-83.0839	137.165	46.645	-53.8377	160.206	-7.50825	-80.4061	152.118	-12.0956	-98.3896	142.83	-25.2253	-122.532	187.2	19.0556	-45.8095	188.554	21.0321	-18.6742	195.492	47.8785	-38.7036	
58	0.483333	179.011	76.5947	-34.4888	169.415	91.6411	-55.5047	169.851	101.995	-79.428	166.828	103.427	-102.574	162.475	58.1146	-98.1539	133.957	71.1941	-92.4697	142.339	69.6631	-60.9061	152.95	39.1457	-94.305	124.666	53.0439	-79.9179	146.743	60.008	-50.4814	147.698	24.7511	-91.3749	120.998	37.8956	-79.4638	135.678	48.1796	-53.3708	153.921	-5.5872	-78.2891	143.52	-12.3079	-97.3588	134.796	-23.3345	-118.578	181.459	14.8011	-43.7806	186.452	19.7818	-13.347	196.146	45.8192	-36.9329	
59	0.491667	181.481	73.9042	-33.4783	176.438	91.712	-56.1774	174.792	94.5311	-82.3552	174.605	102.141	-101.28	164.726	60.0996	-99.22	136.576	69.5291	-94.2552	144.531	66.7294	-60.725	149.032	40.5944	-95.7183	125.852	56.6256	-81.4979	144.263	59.2362	-51.3873	143.003	22.1642	-91.3044	119.278	40.5606	-80.3491	135.258	47.0807	-51.9214	149.068	-5.08297	-75.6181	136.72	-11.9046	-94.2191	127.114	-17.262	-115.629	179.011	13.4642	-48.6346	185.165	17.6226	-14.2503	196.668	41.3082	-36.6511	
60	0.5	186.386	74.6155	-32.3876	179.56	84.0886	-56.7005	182.896	94.1243	-81.3669	184.21	101.786	-103.146	163.231	55.2804	-101.688	138.851	72.2668	-92.2662	149.94	70.6869	-60.377	153.533	39.0914	-95.9023	129.783	59.3671	-86.4786	149.196	56.9193	-50.6681	139.141	22.4829	-92.6339	120.653	41.6548	-81.298	137.788	47.4905	-52.2857	143.722	-5.643	-74.7501	133.021	-7.77598	-98.3317	119.524	-18.2054	-113.871	177.265	8.75344	-46.4604	183.157	14.0796	-15.5352	196.833	36.9478	-40.5927	
61	0.508333	189.156	69.2171	-36.2345	186.481	86.0136	-56.0918	189.856	92.8242	-82.9178	189.285	94.4624	-102.995	168.811	53.2549	-99.6463	140.22	68.7527	-93.1783	150.735	71.2621	-63.8935	151.5	35.0418	-94.0421	131.154	60.8342	-85.7605	149.467	61.0348	-54.5814	141.864	24.1668	-91.8841	122.023	43.9425	-85.1358	137.22	49.7864	-53.8923	141.991	-4.10015	-79.1351	128.787	-8.75384	-93.5005	115.797	-15.4048	-119.758	173.036	7.23818	-47.0758	179.973	11.7897	-16.3742	197.564	36.1451	-39.9549	
62	0.516667	192.116	66.8318	-35.2699	188.225	80.3769	-57.4094	194.011	87.3448	-85.6588	196.57	92.7504	-103.873	167.455	48.5045	-98.7533	143.158	66.1311	-96.1116	153.998	70.1609	-62.7341	148.222	36.2842	-98.0365	132.49	60.113	-87.0266	151.012	57.4822	-52.9219	139.006	20.5565	-89.4255	124.025	48.6361	-82.7012	142.59	49.1563	-52.1255	136.997	-5.85605	-74.7153	125.622	-8.05672	-96.7004	113.827	-12.3414	-119.393	171.891	6.2826	-43.7083	177.014	8.56267	-12.8868	193.838	31.02	-40.1291	
